Coordinates
version=1
nRows=25
nColumns=23
inDegrees=yes

Units are S.I. units (second, meters, Newtons, ...)
If the header above contains a line with 'inDegrees', this indicates whether rotational values are in degrees (yes) or radians (no).

endheader
time	pelvis_tilt	pelvis_list	pelvis_rotation	pelvis_tx	pelvis_ty	pelvis_tz	hip_flexion_r	hip_adduction_r	hip_rotation_r	knee_angle_r	knee_angle_r_beta	ankle_angle_r	subtalar_angle_r	mtp_angle_r	hip_flexion_l	hip_adduction_l	hip_rotation_l	knee_angle_l	knee_angle_l_beta	ankle_angle_l	subtalar_angle_l	mtp_angle_l
     22.50000000	     -3.78403983	      0.37439964	     -1.04144616	      2.19493170	      0.90840429	      0.99596367	    -15.60299314	     -0.21360358	    -11.05519998	     23.97100998	      0.41837305	    -12.61268256	      3.83705686	      0.00000000	     29.23528551	      1.69284061	     -0.02205147	     41.67003248	      0.72727927	      6.48619688	    -10.57001772	      0.00000000
     22.50666667	     -3.96520533	      0.21784484	     -0.82171193	      2.19704703	      0.91102176	      0.99565341	    -16.59797868	      0.05136400	    -10.81755048	     23.02038541	      0.40178152	    -14.74947247	      3.26582829	      0.00000000	     28.89699136	      1.65206717	     -0.20421304	     37.82494087	      0.66016976	      5.87501064	     -9.71355266	      0.00000000
     22.51333333	     -4.34463533	      0.07849185	     -0.59488343	      2.19894332	      0.91286993	      0.99521339	    -17.14546795	      0.20380467	    -10.79569043	     22.57754714	      0.39405253	    -16.47944750	      2.83144710	      0.00000000	     28.83162177	      1.62787941	     -0.48815789	     34.21395873	      0.59714623	      5.19162547	     -8.55756493	      0.00000000
     22.52000000	     -4.75283855	     -0.05688184	     -0.33238421	      2.20067989	      0.91419046	      0.99471118	    -17.49233142	      0.31814982	    -10.91840197	     22.50799066	      0.39283855	    -17.78582759	      2.36147757	      0.00000000	     28.84028204	      1.62969044	     -0.80500337	     30.84923064	      0.53842065	      4.49827428	     -7.25915824	      0.00000000
     22.52666667	     -5.14893449	     -0.21731127	      0.01722735	      2.20225684	      0.91501172	      0.99400554	    -17.73284850	      0.48485349	    -11.07114077	     22.70645893	      0.39630247	    -18.74122631	      1.75937016	      0.00000000	     28.90892918	      1.67829757	     -1.05726739	     27.80942824	      0.48536609	      3.75816727	     -5.86067382	      0.00000000
     22.53333333	     -5.49918127	     -0.36140150	      0.42010452	      2.20361886	      0.91544133	      0.99324596	    -17.90504067	      0.66149874	    -11.21749286	     23.14687966	      0.40398926	    -19.28236521	      1.00056763	      0.00000000	     28.98327851	      1.78701978	     -1.26377199	     25.07368972	      0.43761844	      3.07106601	     -4.41237023	      0.00000000
     22.54000000	     -5.57990257	     -0.43246755	      0.74016661	      2.20470424	      0.91568275	      0.99255492	    -18.20866969	      0.76924265	    -11.15271813	     23.90664025	      0.41724959	    -19.53315543	     -0.21018763	      0.00000000	     28.84022638	      1.92733351	     -1.65348109	     22.72081095	      0.39655296	      2.39096971	     -2.96158312	      0.00000000
     22.54666667	     -5.78895307	     -0.57193644	      1.31204600	      2.20558269	      0.91520561	      0.99162807	    -18.26229344	      1.00516051	    -11.39158382	     24.94519165	      0.43537573	    -19.32404589	     -1.19488903	      0.00000000	     28.98510524	      2.16751817	     -1.61541165	     20.88230928	      0.36446505	      1.84621894	     -1.58683271	      0.00000000
     22.55333333	     -5.89766388	     -0.41688887	      1.70015791	      2.20634946	      0.91434868	      0.99091421	    -18.24023156	      0.86365475	    -11.50675147	     26.40550005	      0.46086292	    -18.77856066	     -2.59937830	      0.00000000	     29.00787493	      2.55911300	     -2.12472613	     19.31387877	      0.33709078	      1.16062244	     -0.29252562	      0.00000000
     22.56000000	     -5.95476806	     -0.32360515	      2.14465438	      2.20686104	      0.91305542	      0.99019989	    -18.13676228	      0.82008768	    -11.59369933	     28.13276793	      0.49100943	    -17.94559479	     -3.94434041	      0.00000000	     29.12831146	      2.92072315	     -2.52104874	     18.31529175	      0.31966214	      0.67192730	      0.91905549	      0.00000000
     22.56666667	     -5.95021997	     -0.13358302	      2.65584037	      2.20725478	      0.91130647	      0.98949663	    -17.98747273	      0.70359415	    -11.72728139	     30.12660358	      0.52580842	    -16.87153945	     -5.30309118	      0.00000000	     29.25925653	      3.41292023	     -2.81768089	     17.77092218	      0.31016110	      0.25726025	      1.95684741	      0.00000000
     22.57333333	     -5.84594229	      0.11315421	      3.19374938	      2.20748781	      0.90921174	      0.98885899	    -17.82434169	      0.54160392	    -11.88260289	     32.35877287	      0.56476713	    -15.69452580	     -6.66890745	      0.00000000	     29.33674384	      3.96588332	     -3.03976523	     17.63334473	      0.30775992	     -0.07706156	      2.72955888	      0.00000000
     22.58000000	     -5.74275656	      0.45403936	      3.69389258	      2.20760765	      0.90663413	      0.98835258	    -17.52218137	      0.26812463	    -11.99415831	     34.87998697	      0.60877062	    -14.41757678	     -7.95288580	      0.00000000	     29.48322030	      4.57245276	     -3.31403299	     17.96186889	      0.31349375	     -0.33460178	      3.35726000	      0.00000000
     22.58666667	     -5.52927639	      0.81356689	      4.24488562	      2.20762875	      0.90375934	      0.98787759	    -17.24978522	     -0.00589600	    -12.15802495	     37.55556175	      0.65546821	    -13.17498228	     -9.11912806	      0.00000000	     29.57563848	      5.20642564	     -3.46453177	     18.73342513	      0.32695995	     -0.46694516	      3.73955273	      0.00000000
     22.59333333	     -5.22715388	      1.26252790	      4.79643310	      2.20756988	      0.90059018	      0.98747129	    -16.98755445	     -0.36012386	    -12.29721109	     40.38345541	      0.70482426	    -12.07187212	    -10.24624803	      0.00000000	     29.57606623	      5.93655973	     -3.45807847	     19.84166349	      0.34630236	     -0.46071925	      3.71785840	      0.00000000
     22.60000000	     -4.95595174	      1.68879104	      5.37282824	      2.20740049	      0.89698578	      0.98708863	    -16.58873146	     -0.71385502	    -12.49942926	     43.37538467	      0.75704328	    -11.02524489	    -11.09234299	      0.00000000	     29.66822937	      6.65432034	     -3.34142674	     21.38117640	      0.37317193	     -0.35863269	      3.40574391	      0.00000000
     22.60666667	     -4.56304651	      2.18289635	      5.93732647	      2.20709548	      0.89316544	      0.98673059	    -16.24299079	     -1.13641990	    -12.67997563	     46.46787523	      0.81101742	    -10.22966514	    -11.87728069	      0.00000000	     29.62218016	      7.46980941	     -2.99733440	     23.22501384	      0.40535296	     -0.00968714	      2.63069613	      0.00000000
     22.61333333	     -3.96352678	      2.70351369	      6.50691617	      2.20671041	      0.88932146	      0.98640076	    -16.08487430	     -1.55194021	    -12.85361563	     49.53960545	      0.86462923	     -9.69596889	    -12.64124527	      0.00000000	     29.32943262	      8.31530642	     -2.54362278	     25.33315681	      0.44214700	      0.66847812	      1.52508847	      0.00000000
     22.62000000	     -3.75415804	      3.18770799	      7.06288321	      2.20613446	      0.88462231	      0.98598981	    -15.34826318	     -2.07958863	    -13.08277938	     52.88659026	      0.92304513	     -9.13745490	    -12.84398331	      0.00000000	     29.44676938	      9.27069362	     -1.75445700	     27.67501270	      0.48302009	      1.43335009	     -0.15577012	      0.00000000
     22.62666667	     -3.25775413	      3.66741037	      7.60131040	      2.20547792	      0.88004738	      0.98560764	    -14.90402755	     -2.53382123	    -13.22063245	     56.11477519	      0.97938759	     -8.86264553	    -13.22346113	      0.00000000	     29.22969723	     10.18958937	     -1.03127463	     30.22952328	      0.52760471	      2.69036698	     -1.84556843	      0.00000000
     22.63333333	     -2.89568233	      4.10929701	      8.11490586	      2.20461196	      0.87517871	      0.98517837	    -14.20559336	     -3.02036051	    -13.32462285	     59.41418019	      1.03697307	     -8.64175134	    -13.31981773	      0.00000000	     29.07688610	     11.15705424	     -0.17055223	     32.79304352	      0.57234658	      4.03160389	     -3.75953582	      0.00000000
     22.64000000	     -2.44543560	      4.53807886	      8.56074957	      2.20356520	      0.87025411	      0.98481898	    -13.52011613	     -3.50721691	    -13.34623592	     62.70969398	      1.09449063	     -8.48223758	    -13.38337592	      0.00000000	     28.78268665	     12.10268920	      0.64547655	     35.39773472	      0.61780702	      5.72379512	     -5.68734455	      0.00000000
     22.64666667	     -2.02707128	      4.91648756	      8.93923631	      2.20229491	      0.86528753	      0.98450929	    -12.69671449	     -4.01058409	    -13.29697517	     65.99382507	      1.15180953	     -8.30761664	    -13.37589272	      0.00000000	     28.44203726	     12.98591983	      1.40709997	     37.91325853	      0.66171119	      7.52553577	     -7.56422484	      0.00000000
     22.65333333	     -1.60778602	      5.23482205	      9.26050487	      2.20089117	      0.86038585	      0.98429265	    -11.78681611	     -4.44468224	    -13.13389132	     69.20202859	      1.20780325	     -8.08692479	    -13.36339246	      0.00000000	     28.03632082	     13.76815239	      2.07350599	     40.35016440	      0.70424322	      9.40564261	     -9.21213963	      0.00000000
     22.66000000	     -1.23823887	      5.49762293	      9.49936550	      2.19930607	      0.85555227	      0.98420324	    -10.71204903	     -4.86347698	    -12.87106745	     72.35375657	      1.26281128	     -7.77090254	    -13.33559457	      0.00000000	     27.61106246	     14.44417948	      2.65916506	     42.64568581	      0.74430763	     11.28137133	    -10.64092862	      0.00000000
